<?xml version="1.0" encoding="utf-8"?>
<!-- Generator: Adobe Illustrator 18.1.1, SVG Export Plug-In . SVG Version: 6.00 Build 0)  -->
<svg version="1.1" id="Layer_1" xmlns="http://www.w3.org/2000/svg" xmlns:xlink="http://www.w3.org/1999/xlink" x="0px" y="0px"
	 viewBox="752.7 1884.4 640.7 448" enable-background="new 752.7 1884.4 640.7 448" xml:space="preserve">
<g>
	<g>
		<path fill="#FFFFFF" d="M807.5,2052.7h-19.8c-3.5,0-6-2.8-6-6v-7.1c0-3.5,2.5-6,6-6h19.8v-45.2c0-37.4,21.5-55.1,49.4-55.1
			c17.6,0,29.6,7.8,35.6,13.4c2.1,2.1,2.5,5.3,1.4,7.4l-5.3,8.5c-2.1,3.2-5.3,2.8-8.5,0.4c-4.2-3.2-13.8-9.5-23.6-9.5
			c-14.8,0-26.8,9.9-26.8,34.9v45.2h37.4c3.5,0,6,2.5,6,6v7.1c0,3.2-2.5,6-6,6h-37.4v103.8c0,3.2-2.8,6-6,6h-9.9c-3.2,0-6-2.8-6-6
			v-103.8H807.5z"/>
		<path fill="#FFFFFF" d="M938.5,2030.1c33.9,0,58.6,25.4,58.6,59.3c0,2.1-0.4,6.4-0.7,8.8c-0.4,3.2-2.8,5.6-6,5.6h-93.2
			c1.4,21.5,20.5,42,43.4,42c13.8,0,24.7-5.3,32.1-9.9c4.6-2.5,6.4-4.2,9.2-0.7c1.8,2.5,3.5,4.9,5.6,7.4c2.1,2.8,3.5,4.9-1.4,8.5
			c-7.8,6-25.4,14.8-47.6,14.8c-39.2,0-63.5-30.7-63.5-68.1C874.9,2061.5,899.3,2030.1,938.5,2030.1z M974.8,2085.5
			c-1.1-18.7-16.6-35.6-36.4-35.6c-21.5,0-38.5,15.5-40.9,35.6H974.8z"/>
		<path fill="#FFFFFF" d="M1024.6,2052.7H1008c-3.5,0-6-2.8-6-6v-7.1c0-3.5,2.5-6,6-6h16.6v-36c0-3.2,2.8-6,6-6l10.2-0.7
			c3.2,0,5.6,2.8,5.6,6v36.7h37.4c3.5,0,6,2.5,6,6v7.1c0,3.2-2.5,6-6,6h-37.4v75.9c0,13.1,3.2,15.5,10.6,15.5
			c8.1,0,19.4-4.9,23.6-7.1c4.9-2.5,6-0.7,7.8,1.8l4.9,8.1c2.1,3.9,1.4,6-2.1,8.1c-4.6,2.8-21.9,10.9-37.1,10.9
			c-25.8,0-29.6-15.5-29.6-35.6V2052.7L1024.6,2052.7z"/>
		<path fill="#FFFFFF" d="M1164,2030.1c19.4,0,34.6,7.8,46.2,22.6c2.1,2.8,1.8,6.7-1.4,9.2l-6,5.3c-4.9,4.6-6.4,1.4-9.5-1.4
			c-6.4-7.4-17.3-13.8-29.6-13.8c-24.4,0-43.1,20.1-43.1,45.9s18.4,46.6,42.7,46.6c19.4,0,26.8-9.9,34.2-16.9c3.9-3.9,6-3.2,9.9-0.7
			l3.5,2.5c3.2,2.1,4.2,5.6,2.1,9.2c-9.9,15.5-27.5,27.2-49.4,27.2c-36,0-66.4-28.9-66.4-67.8
			C1097.3,2060.1,1128.7,2030.1,1164,2030.1z"/>
		<path fill="#FFFFFF" d="M1232.5,1942.6c0-3.2,2.8-6,6-6h9.9c3.2,0,6,2.8,6,6v104.8c0,0,17.3-17.3,43.4-17.3
			c32.1,0,50.1,20.5,50.1,58.2v68.1c0,3.2-2.8,6-6,6h-10.2c-3.2,0-6-2.8-6-6v-68.1c0-24.7-10.9-36.7-29.3-36.7
			c-24.7,0-41.6,18-41.6,18v86.8c0,3.2-2.8,6-6,6h-9.9c-3.2,0-6-2.8-6-6v-213.9H1232.5z"/>
	</g>
	<path id="XMLID_14_" fill="#A4CC39" d="M1157.6,2068.6c-2.1,1.1-2.8,3.2-2.1,5.3c1.1,2.1,3.2,2.8,5.3,2.1c6.4-2.8,14.1,0,16.9,6.4
		c1.1,2.1,3.2,2.8,5.3,2.1c2.1-1.1,2.8-3.2,2.1-5.3C1180.6,2068.6,1168.2,2064,1157.6,2068.6z"/>
	<path fill="#A4CC39" d="M1190.5,2179.1l27.2,72.4l8.1,30.4c0.7,2.8-1.1,5.6-3.9,6.4l-21.2,5.6c-2.8,0.7-5.6-1.1-6.4-3.9l-7.8-29.6
		l-12-76.9c-0.4-2.1,1.4-4.9,3.9-5.6l6-1.4C1186.9,2175.5,1189.8,2176.9,1190.5,2179.1z"/>
</g>
</svg>
